<?xml version="1.0" standalone="no"?>
<!DOCTYPE svg PUBLIC "-//W3C//DTD SVG 20010904//EN"
 "http://www.w3.org/TR/2001/REC-SVG-20010904/DTD/svg10.dtd">
<svg version="1.0" xmlns="http://www.w3.org/2000/svg"
 width="312.000000pt" height="312.000000pt" viewBox="0 0 312.000000 312.000000"
 preserveAspectRatio="xMidYMid meet">
<metadata>
Created by potrace 1.14, written by Peter Selinger 2001-2017
</metadata>
<g transform="translate(0.000000,312.000000) scale(0.100000,-0.100000)"
fill="#000000" stroke="none">
<path d="M272 3049 l-2 -76 -127 -48 c-71 -27 -132 -52 -138 -57 -11 -10 23 2
163 56 52 20 96 36 98 36 2 0 4 -51 4 -112 l0 -113 -33 -20 c-66 -40 -59 -40
-222 1 -15 4 -17 3 -5 -4 8 -5 48 -17 88 -27 39 -9 72 -21 72 -26 0 -4 -39
-10 -87 -12 l-88 -3 98 -2 c97 -2 98 -2 91 -24 -8 -26 -5 -24 -106 -83 -43
-25 -78 -48 -78 -51 0 -5 61 29 135 75 43 27 63 29 107 10 l28 -11 0 -555 0
-554 -127 3 -128 3 0 57 c0 31 -4 60 -8 64 -5 5 -7 -24 -6 -64 1 -48 6 -72 14
-72 18 0 215 -215 215 -234 0 -19 11 -21 28 -4 9 9 12 -10 12 -85 0 -53 -2
-97 -4 -97 -2 0 -27 36 -55 80 l-51 81 37 -5 38 -6 -35 11 c-49 15 -51 17
-127 139 -37 60 -69 108 -71 106 -1 -2 29 -54 67 -115 39 -61 69 -111 68 -111
-1 0 -33 9 -71 20 -38 11 -65 16 -60 11 5 -5 38 -16 75 -26 l65 -17 53 -84
c46 -73 52 -89 46 -117 -4 -18 -8 -58 -9 -90 -2 -56 -4 -59 -67 -125 -35 -37
-87 -92 -114 -122 -28 -31 4 0 70 67 66 68 126 124 132 123 10 0 13 -95 16
-422 l2 -423 3 428 2 428 30 -18 c35 -20 25 10 165 -478 54 -187 102 -344 107
-350 6 -6 7 -5 4 5 -37 104 -234 814 -229 827 3 10 12 25 20 34 8 9 18 29 22
45 7 27 14 29 267 96 148 39 269 66 283 62 19 -4 22 -2 17 11 -3 9 -6 26 -6
37 0 15 -4 18 -12 11 -21 -15 -511 9 -532 26 -14 12 -16 10 -16 -14 0 -20 3
-25 13 -18 7 5 112 5 264 -2 224 -9 277 -15 262 -29 -2 -3 -125 -36 -272 -74
l-268 -70 -39 41 c-30 31 -37 44 -29 54 9 10 6 13 -16 13 -22 0 -25 -3 -16
-13 11 -14 6 -27 -11 -27 -4 0 -8 95 -8 210 l0 210 121 0 c93 0 118 -3 113
-12 -42 -69 -139 -187 -156 -192 -22 -5 -22 -6 -3 -20 27 -21 35 -20 35 5 0
12 32 66 72 120 l71 99 270 0 269 0 -5 -42 c-4 -24 -8 -79 -11 -123 l-5 -80
10 70 c5 39 12 94 15 123 5 51 6 52 39 52 l34 0 -40 -117 c-21 -64 -39 -122
-38 -128 0 -5 20 46 43 115 l43 125 115 3 115 3 11 -26 c7 -14 25 -34 42 -43
28 -16 30 -21 30 -77 l0 -60 -159 -43 c-87 -23 -165 -40 -172 -37 -11 4 -14
-6 -14 -40 0 -34 3 -44 13 -40 11 4 121 -24 315 -81 16 -5 17 -33 17 -414 l0
-408 -95 -86 c-53 -47 -92 -86 -88 -86 5 1 46 36 93 80 l85 79 6 -82 5 -82 3
90 2 90 300 270 c166 149 311 271 323 273 12 2 39 -3 60 -10 36 -12 40 -18 82
-121 l45 -108 -19 -42 c-11 -23 -23 -55 -28 -71 -8 -25 -46 -49 -321 -194
-172 -91 -311 -167 -309 -169 2 -2 143 71 314 161 274 146 314 164 339 157 67
-21 63 -9 65 -175 l2 -151 6 155 5 155 24 -140 c13 -77 28 -147 33 -155 8 -13
9 -13 5 0 -2 8 -15 76 -27 150 l-23 136 38 37 c44 43 30 42 279 26 194 -13
208 -18 226 -77 6 -23 -5 -47 -67 -151 -40 -68 -72 -125 -70 -127 2 -2 36 52
76 121 61 103 78 125 102 130 50 11 63 -1 119 -115 30 -60 56 -108 58 -106 2
2 -20 50 -48 106 l-51 102 17 56 c17 52 17 57 0 85 -17 30 -16 31 17 81 62 95
69 106 64 106 -2 0 -24 -29 -47 -65 -24 -36 -48 -64 -54 -62 -14 6 -17 -6 48
204 31 99 56 187 55 195 0 7 -27 -75 -61 -182 -33 -107 -68 -202 -77 -211 -9
-8 -28 -20 -42 -26 -26 -11 -32 -6 -235 227 l-209 239 2 48 c1 27 6 60 11 74
7 18 94 79 311 219 165 107 299 196 297 197 -2 2 -140 -85 -307 -193 -272
-176 -306 -195 -333 -189 -27 6 -78 12 -113 14 -22 2 -218 254 -214 276 3 20
3 20 -19 0 -20 -18 -20 -19 -2 -26 22 -8 218 -250 214 -263 -2 -6 -5 -35 -7
-65 -4 -50 -8 -59 -40 -87 -41 -34 -79 -37 -118 -8 -22 17 -27 35 -52 209 -15
104 -32 197 -36 205 -7 10 -8 7 -4 -10 9 -46 55 -360 55 -379 0 -10 -12 -34
-28 -53 l-27 -35 -303 86 -302 86 0 117 0 117 43 11 c23 6 133 36 245 67 112
30 210 52 219 49 11 -5 14 -2 9 10 -3 8 -6 19 -6 22 0 4 -4 2 -8 -4 -4 -7
-110 -39 -237 -74 -126 -34 -238 -64 -247 -66 -16 -5 -18 2 -18 53 0 54 2 59
30 75 17 9 35 29 42 43 l11 25 781 2 c551 2 640 4 302 5 -346 2 -482 6 -487
15 -10 15 626 698 652 699 62 3 88 2 101 -3 8 -4 52 -57 96 -120 44 -62 88
-122 97 -133 35 -43 -3 16 -86 131 l-87 122 9 42 c5 24 9 50 8 59 -4 44 5 59
62 106 104 86 114 95 108 95 -4 0 -44 -31 -90 -70 -86 -73 -120 -85 -145 -52
-10 12 -13 57 -14 159 l0 142 128 4 127 3 -127 2 -128 2 0 98 0 98 44 22 44
22 81 -35 c45 -19 80 -31 77 -27 -3 5 -37 21 -77 37 -53 22 -74 36 -81 55 -6
14 -16 39 -23 55 -23 54 -24 64 -9 101 8 20 13 38 11 41 -3 2 -10 -11 -17 -31
-13 -40 -37 -58 -106 -81 l-49 -16 -139 66 c-76 36 -140 64 -142 62 -2 -2 61
-34 141 -71 150 -71 162 -82 150 -134 -5 -24 -36 -46 -205 -145 l-199 -117
-279 0 -280 0 -7 153 c-4 83 -11 190 -15 237 -9 83 -9 83 -4 -25 2 -60 7 -168
10 -238 l7 -128 -89 3 -88 3 -73 115 -72 115 -3 120 -2 120 -3 -109 -4 -110
-60 100 c-34 54 -66 104 -72 109 -12 11 14 -33 85 -147 l48 -78 0 -120 0 -120
-146 0 -147 0 7 153 c4 83 8 190 11 237 4 82 3 82 -4 20 -5 -36 -12 -143 -16
-237 l-7 -173 -403 0 c-418 0 -419 0 -408 40 3 8 128 105 280 215 151 110 278
205 281 210 3 6 -10 -2 -29 -16 -271 -203 -528 -383 -544 -381 -66 5 -65 2
-65 131 l0 118 195 74 c107 41 191 75 187 77 -4 1 -90 -29 -191 -68 -100 -38
-184 -70 -186 -70 -2 0 -6 33 -8 73 l-3 72 -2 -76z m2571 -194 c15 -6 17 -21
17 -106 l0 -99 -232 0 c-127 0 -228 3 -225 6 4 4 89 55 189 114 189 111 187
111 251 85z m-1282 -112 l58 -93 -69 0 -70 0 0 113 c1 89 3 108 12 92 6 -11
37 -62 69 -112z m-398 -180 c-2 -43 -5 -100 -7 -126 -2 -29 0 -43 5 -35 5 7 9
54 9 103 0 146 -12 135 156 135 l144 0 0 -159 0 -158 -102 -6 c-83 -4 -105 -3
-111 9 -13 22 -25 16 -20 -9 4 -22 8 -23 51 -16 26 4 77 8 114 8 l67 1 0 -97
c0 -86 -3 -101 -21 -120 l-21 -23 21 0 22 0 0 -268 0 -269 -25 -11 c-14 -7
-34 -25 -43 -42 l-17 -30 -112 0 -112 0 100 293 c54 160 103 300 109 309 8 13
5 20 -10 28 -21 11 -27 1 -11 -16 6 -5 -31 -126 -93 -309 l-102 -300 -38 -3
-37 -3 6 48 c3 26 19 194 35 372 26 274 33 326 48 337 15 12 14 13 -11 14 -16
0 -26 -4 -22 -10 5 -8 -44 -594 -61 -717 l-5 -43 -264 0 -264 0 232 320 c256
354 345 479 331 467 -5 -5 -135 -182 -289 -395 l-281 -387 -127 -3 -127 -3 0
553 1 553 40 26 41 26 346 -134 c191 -74 350 -139 353 -145 4 -6 12 -1 19 12
11 21 10 22 -6 16 -25 -10 -704 252 -704 271 0 11 72 13 398 13 l399 0 -4 -77z
m536 -43 c41 -66 76 -120 78 -120 6 0 -11 29 -77 135 -33 53 -60 98 -60 101 0
2 36 4 80 4 l79 0 6 -33 c4 -19 5 -71 3 -115 -3 -82 -3 -82 22 -82 22 1 23 2
9 13 -13 10 -17 35 -21 115 l-4 102 265 0 c151 0 261 -4 256 -9 -33 -30 -414
-244 -433 -243 -20 2 -21 0 -10 -18 15 -23 28 -26 28 -7 0 7 101 72 225 145
l226 132 244 0 245 0 0 -143 0 -143 -41 -43 c-39 -41 -41 -44 -34 -91 l7 -49
-322 -346 c-177 -190 -328 -345 -337 -345 -9 0 -13 -6 -9 -15 5 -13 -30 -15
-277 -15 l-282 0 -17 30 c-9 17 -29 35 -43 42 l-25 11 0 261 c0 254 0 260 18
241 11 -11 130 -145 267 -297 136 -153 249 -278 252 -278 4 0 -37 47 -371 420
l-166 185 0 50 c0 28 4 56 8 63 13 19 234 103 255 96 17 -5 17 -3 7 16 -8 15
-15 19 -19 11 -7 -10 -225 -101 -243 -101 -5 0 -8 25 -8 55 l0 55 83 1 c45 0
105 4 132 8 29 5 -4 6 -82 3 l-133 -5 0 161 0 162 73 0 73 0 73 -120z m-1429
-1186 c0 -102 -1 -105 -21 -102 -12 2 -64 49 -117 106 l-95 102 117 0 116 0 0
-106z m1200 -225 c0 -100 -2 -110 -17 -105 -10 2 -51 14 -90 25 -224 64 -233
68 -214 100 7 11 267 88 304 90 15 1 17 -11 17 -110z m317 -211 c277 -79 292
-84 295 -108 2 -14 2 -35 0 -46 -2 -14 -114 -122 -294 -285 -161 -145 -295
-266 -300 -267 -4 -2 -8 174 -8 392 0 218 3 396 8 396 4 0 138 -37 299 -82z
m605 -7 c3 -3 -6 -93 -20 -200 -21 -153 -31 -196 -44 -205 -24 -14 -28 -8 -77
112 l-42 104 19 36 c10 20 22 55 25 77 9 53 58 96 102 88 16 -3 33 -8 37 -12z
m80 1 c9 -4 111 -115 226 -247 268 -307 270 -295 -54 -275 -213 14 -200 9
-260 83 l-30 37 27 198 c16 108 28 198 29 199 0 2 31 10 40 11 3 0 13 -2 22
-6z"/>
<path d="M1222 2260 c-11 -18 -10 -20 12 -20 14 0 37 -13 53 -29 28 -28 30
-28 41 -10 17 27 15 32 -9 26 -25 -7 -69 19 -69 39 0 20 -13 17 -28 -6z"/>
<path d="M1841 2241 c-7 -5 -9 -10 -4 -12 16 -6 205 -722 197 -744 -6 -15 -4
-17 10 -12 10 4 23 7 29 7 7 0 4 7 -5 14 -20 15 -212 709 -204 739 5 19 -2 21
-23 8z"/>
<path d="M121 2159 c-67 -220 -121 -402 -119 -405 2 -2 59 177 127 397 67 221
121 403 119 405 -3 2 -59 -177 -127 -397z"/>
<path d="M1016 1013 c-2 -10 -55 -234 -116 -498 -61 -264 -113 -489 -116 -500
-4 -15 -3 -16 4 -5 5 8 56 217 113 463 57 247 105 444 107 439 1 -4 -27 -210
-63 -457 -36 -246 -63 -451 -60 -453 3 -3 5 -3 5 0 0 7 139 970 145 1001 5 29
-11 38 -19 10z"/>
</g>
</svg>
